<svg xmlns="http://www.w3.org/2000/svg" viewBox="0 0 96 120" fill="#ffffff">
    <path d="M84.62 65.1a40.69 40.69 0 0 1-7.77 11.18c-5.65-5-15.39-5.9-17.7-6.06a7.09 7.09 0 0 1-2.87-4.8C55.71 61 59 56.23 59.92 55.05c1.48-.67 6.21-3.06 6.75-6.73a4.16 4.16 0 0 0-.86-3.32 6.69 6.69 0 0 0-4.51-2 1.5 1.5 0 0 0-1.55 1.27l-.1.93c0-.14 0-.27.05-.42a8.83 8.83 0 0 0-1.7-6.92c-1.89-2.43-5.06-3.93-9.17-4.32-5.6-.55-5.65-4.25-5.64-4.65a1.53 1.53 0 0 0-.72-1.36 1.5 1.5 0 0 0-1.52 0c-5.32 3-9.93 9.8-11.46 16.83-1.22 5.6-.38 10.78 2.36 14.6a16.62 16.62 0 0 0 10.63 6.91v2.88c-3.54.3-12.62 1.63-19 7.34a1.1 1.1 0 0 1-.48-.38 3.17 3.17 0 0 1 .18-2.52 1.53 1.53 0 0 0-.2-1.39 1.5 1.5 0 0 0-1.26-.62 4.91 4.91 0 0 1-3.14-1.08 2.85 2.85 0 0 1-.64-2.34c.22-2.75 1.18-3.45 1.71-3.39a1.5 1.5 0 0 0 1.63-2 6.72 6.72 0 0 1 0-4.69 4.59 4.59 0 0 1 3-2.28 1.5 1.5 0 0 0 .54-2.57c-.65-.56-2.44-2.51-2.13-4s2.38-2.37 4.08-2.91a1.48 1.48 0 0 0 1-1.57c0-.11-1-11.49 5.11-16.93C36 24.59 40.49 23.8 46.23 25a1.57 1.57 0 0 0 .86-.07c.5-.2 12.33-4.77 18 6 5.85 11.19 3 17.3 3 17.35a1.52 1.52 0 0 0 .22 1.72 1.5 1.5 0 0 0 1.66.38c1.48-.58 4.11-1.1 5.08-.4.13.09.51.37.44 1.53-.23 3.73-.89 4.85-1 5.06a1.5 1.5 0 0 0 1 2.74s4.23-.36 7 2.07a7.24 7.24 0 0 1 2.13 3.72Zm-36.06 9.2a16.57 16.57 0 0 0 7.81-2.54 9.8 9.8 0 0 1-3.06-6c-.83-6.34 4.28-12.65 4.5-12.92a1.53 1.53 0 0 1 .59-.44c1.28-.52 5-2.48 5.3-4.55a1.17 1.17 0 0 0-.2-1 2.4 2.4 0 0 0-1.08-.65 3 3 0 0 1-3.2 1.93A2.9 2.9 0 0 1 56.63 45c0-.2 0-.41.08-.63a5.92 5.92 0 0 0-1.11-4.67c-1.37-1.76-3.82-2.86-7.09-3.18-4.83-.47-7.06-2.93-7.91-5.19A24.65 24.65 0 0 0 32.39 45c-1 4.76-.37 9.09 1.87 12.21A14 14 0 0 0 49 62.83l.82 2.89a16.57 16.57 0 0 1-4.39.44v4A1.5 1.5 0 0 1 44 71.64s-.62 0-1.6.12a7.17 7.17 0 0 0 6.16 2.54Zm-27.22 4a3.76 3.76 0 0 1-.86-.91 4.75 4.75 0 0 1-.63-3.39 6.68 6.68 0 0 1-3.47-1.82 5.77 5.77 0 0 1-1.46-4.65c.2-2.47 1-4.24 2.26-5.26a4.08 4.08 0 0 1 .82-.51 8.84 8.84 0 0 1 .56-5.4 6.81 6.81 0 0 1 2.78-2.95 6.69 6.69 0 0 1-1.56-5.23c.41-2 2.1-3.66 5-4.79C24.68 40 25 30.46 31 25.1c3.74-3.35 9-4.4 15.47-3.14 2.53-.85 15.07-4.33 21.29 7.57 4.29 8.2 4.38 14.06 3.86 17.27 1.67-.3 3.77-.36 5.25.71a4.46 4.46 0 0 1 1.66 4.14 21.68 21.68 0 0 1-.72 4.7 12.09 12.09 0 0 1 6.63 2.72 9.69 9.69 0 0 1 1.76 2.13 40.42 40.42 0 1 0-64.9 17.12Zm17.85.85c3.69.07 5-1.38 5-1.44a1.57 1.57 0 0 1 1.17-.57 1.67 1.67 0 0 1 1.16.52c.11.12 2.74 3.11 6 1.83 1.71-.66 3.24-2.61 4.38-4.54a19.53 19.53 0 0 1-8.19 2.37h-.77a10.27 10.27 0 0 1-8.93-5.07l-.45.08c-.56 2.25-.92 5.38-.14 6.47a.8.8 0 0 0 .77.32Zm21.88-5.69c-1.09 2.49-3.63 7.36-7.42 8.83a7.83 7.83 0 0 1-2.78.53 8.85 8.85 0 0 1-5.55-2.18 10.66 10.66 0 0 1-6.19 1.51A3.79 3.79 0 0 1 36 80.56c-1.37-1.9-1.11-5.12-.68-7.43-4 1.18-8.6 3.3-11.74 7.08a40.33 40.33 0 0 0 51.06-1.87c-3.82-3.25-10.1-4.47-13.57-4.91Z"/>
</svg>